ffmpeg started on 2025-05-26 at 18:49:45
Report written to "D:\Convert\FFMetrics\reports\psnr_report-6.txt"
Log level: 32
Command line:
ffmpeg -hide_banner -nostdin -i "G:\\\xc0\xed\xe8\xec\xe5\\\xce\xed\xe3\xee\xe8\xed\xe3\xe8\\!_34_\xc2\xe5\xf1\xed\xe0_2024\\DreamCast\\\xc7\xe0\xe1\xe2\xe5\xed\xe8\xe5 \xe1\xfd\xf2\xf2\xe5\xf0\xe8\\[DC] Boukyaku Battery - 09_Telegram_HEVC.mkv" -i "G:\\\xc0\xed\xe8\xec\xe5\\\xce\xed\xe3\xee\xe8\xed\xe3\xe8\\!_34_\xc2\xe5\xf1\xed\xe0_2024\\DreamCast\\\xc7\xe0\xe1\xe2\xe5\xed\xe8\xe5 \xe1\xfd\xf2\xf2\xe5\xf0\xe8\\[DC] Boukyaku Battery - 09_Telegram.mp4" -lavfi "[0:v]settb=AVTB,setpts=PTS-STARTPTS,format=pix_fmts=yuv420p10,fps=24000/1001,scale=1920:1080:flags=bicubic[main];[1:v]settb=AVTB,setpts=PTS-STARTPTS,format=pix_fmts=yuv420p,fps=24000/1001,scale=1920:1080:flags=bicubic[ref];[main][ref]psnr=eof_action=endall:stats_file='D\\:/Convert/FFMetrics/logs/psnr_logfile-6.txt'" -f null -
Input #0, matroska,webm, from 'G:\Аниме\Онгоинги\!_34_Весна_2024\DreamCast\Забвение бэттери\[DC] Boukyaku Battery - 09_Telegram_HEVC.mkv':
  Metadata:
    COMPATIBLE_BRANDS: isomiso2avc1mp41
    MAJOR_BRAND     : isom
    MINOR_VERSION   : 512
    ENCODER         : Lavf61.7.100
  Duration: 00:24:01.71, start: -0.021000, bitrate: 1373 kb/s
  Stream #0:0: Video: hevc (Main 10), yuv420p10le(tv, bt709, progressive), 1920x1080 [SAR 1:1 DAR 16:9], 23.98 fps, 23.98 tbr, 1k tbn (default)
      Metadata:
        HANDLER_NAME    : VideoHandler
        VENDOR_ID       : [0][0][0][0]
        ENCODER         : Lavc61.19.100 libx265
        BPS             : 1176475
        DURATION        : 00:24:01.523708333
        NUMBER_OF_FRAMES: 34562
        NUMBER_OF_BYTES : 211989634
        _STATISTICS_WRITING_APP: mkvpropedit v66.0.0 ('Josie') 64-bit
        _STATISTICS_WRITING_DATE_UTC: 2025-05-26 11:44:07
        _STATISTICS_TAGS: BPS DURATION NUMBER_OF_FRAMES NUMBER_OF_BYTES
  Stream #0:1: Audio: aac (LC), 48000 Hz, stereo, fltp (default)
      Metadata:
        HANDLER_NAME    : SoundHandler
        VENDOR_ID       : [0][0][0][0]
        ENCODER         : Lavc61.19.100 aac
        BPS             : 193136
        DURATION        : 00:24:01.706000000
        NUMBER_OF_FRAMES: 67581
        NUMBER_OF_BYTES : 34805701
        _STATISTICS_WRITING_APP: mkvpropedit v66.0.0 ('Josie') 64-bit
        _STATISTICS_WRITING_DATE_UTC: 2025-05-26 11:44:07
        _STATISTICS_TAGS: BPS DURATION NUMBER_OF_FRAMES NUMBER_OF_BYTES
Input #1, mov,mp4,m4a,3gp,3g2,mj2, from 'G:\Аниме\Онгоинги\!_34_Весна_2024\DreamCast\Забвение бэттери\[DC] Boukyaku Battery - 09_Telegram.mp4':
  Metadata:
    major_brand     : isom
    minor_version   : 512
    compatible_brands: isomiso2avc1mp41
    encoder         : Lavf60.16.100
  Duration: 00:24:01.65, start: 0.000000, bitrate: 3945 kb/s
  Stream #1:0[0x1](und): Video: h264 (High) (avc1 / 0x31637661), yuv420p(tv, bt709, progressive), 1920x1080 [SAR 1:1 DAR 16:9], 3797 kb/s, 23.98 fps, 23.98 tbr, 24k tbn (default)
      Metadata:
        handler_name    : VideoHandler
        vendor_id       : [0][0][0][0]
        encoder         : Lavc60.31.102 h264_qsv
  Stream #1:1[0x2](und): Audio: aac (HE-AACv2) (mp4a / 0x6134706D), 48000 Hz, stereo, fltp, 144 kb/s (default)
      Metadata:
        handler_name    : SoundHandler
        vendor_id       : [0][0][0][0]
Stream mapping:
  Stream #0:0 (hevc) -> settb:default
  Stream #1:0 (h264) -> settb:default
  psnr:default -> Stream #0:0 (wrapped_avframe)
  Stream #0:1 -> #0:1 (aac (native) -> pcm_s16le (native))
Output #0, null, to 'pipe:':
  Metadata:
    COMPATIBLE_BRANDS: isomiso2avc1mp41
    MAJOR_BRAND     : isom
    MINOR_VERSION   : 512
    encoder         : Lavf61.7.100
  Stream #0:0: Video: wrapped_avframe, yuv420p10le(tv, bt709, progressive), 1920x1080 [SAR 1:1 DAR 16:9], q=2-31, 200 kb/s, 23.98 fps, 23.98 tbn
      Metadata:
        encoder         : Lavc61.19.100 wrapped_avframe
  Stream #0:1: Audio: pcm_s16le, 48000 Hz, stereo, s16, 1536 kb/s (default)
      Metadata:
        HANDLER_NAME    : SoundHandler
        VENDOR_ID       : [0][0][0][0]
        _STATISTICS_TAGS: BPS DURATION NUMBER_OF_FRAMES NUMBER_OF_BYTES
        BPS             : 193136
        DURATION        : 00:24:01.706000000
        NUMBER_OF_FRAMES: 67581
        NUMBER_OF_BYTES : 34805701
        _STATISTICS_WRITING_APP: mkvpropedit v66.0.0 ('Josie') 64-bit
        _STATISTICS_WRITING_DATE_UTC: 2025-05-26 11:44:07
        encoder         : Lavc61.19.100 pcm_s16le
frame=  180 fps=0.0 q=-0.0 size=N/A time=00:00:07.50 bitrate=N/A speed=14.5x    frame=  449 fps=437 q=-0.0 size=N/A time=00:00:18.72 bitrate=N/A speed=18.2x    frame=  698 fps=451 q=-0.0 size=N/A time=00:00:29.11 bitrate=N/A speed=18.8x    frame=  925 fps=450 q=-0.0 size=N/A time=00:00:38.58 bitrate=N/A speed=18.7x    frame= 1174 fps=457 q=-0.0 size=N/A time=00:00:48.96 bitrate=N/A speed=19.1x    frame= 1441 fps=467 q=-0.0 size=N/A time=00:01:00.10 bitrate=N/A speed=19.5x    frame= 1689 fps=468 q=-0.0 size=N/A time=00:01:10.44 bitrate=N/A speed=19.5x    frame= 1875 fps=456 q=-0.0 size=N/A time=00:01:18.20 bitrate=N/A speed=  19x    frame= 2082 fps=449 q=-0.0 size=N/A time=00:01:26.83 bitrate=N/A speed=18.7x    frame= 2291 fps=445 q=-0.0 size=N/A time=00:01:35.55 bitrate=N/A speed=18.5x    frame= 2480 fps=437 q=-0.0 size=N/A time=00:01:43.43 bitrate=N/A speed=18.2x    frame= 2669 fps=432 q=-0.0 size=N/A time=00:01:51.36 bitrate=N/A speed=  18x    frame= 2885 fps=430 q=-0.0 size=N/A time=00:02:00.32 bitrate=N/A speed=17.9x    frame= 3061 fps=424 q=-0.0 size=N/A time=00:02:07.66 bitrate=N/A speed=17.7x    frame= 3269 fps=423 q=-0.0 size=N/A time=00:02:16.34 bitrate=N/A speed=17.6x    frame= 3495 fps=424 q=-0.0 size=N/A time=00:02:25.77 bitrate=N/A speed=17.7x    frame= 3716 fps=424 q=-0.0 size=N/A time=00:02:34.98 bitrate=N/A speed=17.7x    frame= 3949 fps=426 q=-0.0 size=N/A time=00:02:44.70 bitrate=N/A speed=17.8x    frame= 4122 fps=421 q=-0.0 size=N/A time=00:02:51.92 bitrate=N/A speed=17.6x    frame= 4347 fps=422 q=-0.0 size=N/A time=00:03:01.30 bitrate=N/A speed=17.6x    frame= 4554 fps=420 q=-0.0 size=N/A time=00:03:09.93 bitrate=N/A speed=17.5x    frame= 4730 fps=417 q=-0.0 size=N/A time=00:03:17.28 bitrate=N/A speed=17.4x    frame= 4928 fps=415 q=-0.0 size=N/A time=00:03:25.53 bitrate=N/A speed=17.3x    frame= 5151 fps=417 q=-0.0 size=N/A time=00:03:34.83 bitrate=N/A speed=17.4x    frame= 5386 fps=418 q=-0.0 size=N/A time=00:03:44.64 bitrate=N/A speed=17.4x    frame= 5592 fps=417 q=-0.0 size=N/A time=00:03:53.23 bitrate=N/A speed=17.4x    frame= 5843 fps=420 q=-0.0 size=N/A time=00:04:03.70 bitrate=N/A speed=17.5x    frame= 6062 fps=420 q=-0.0 size=N/A time=00:04:12.83 bitrate=N/A speed=17.5x    frame= 6277 fps=420 q=-0.0 size=N/A time=00:04:21.80 bitrate=N/A speed=17.5x    frame= 6486 fps=419 q=-0.0 size=N/A time=00:04:30.52 bitrate=N/A speed=17.5x    frame= 6707 fps=420 q=-0.0 size=N/A time=00:04:39.73 bitrate=N/A speed=17.5x    frame= 6948 fps=421 q=-0.0 size=N/A time=00:04:49.78 bitrate=N/A speed=17.6x    frame= 7195 fps=423 q=-0.0 size=N/A time=00:05:00.09 bitrate=N/A speed=17.6x    frame= 7465 fps=426 q=-0.0 size=N/A time=00:05:11.35 bitrate=N/A speed=17.8x    frame= 7705 fps=427 q=-0.0 size=N/A time=00:05:21.36 bitrate=N/A speed=17.8x    frame= 7959 fps=429 q=-0.0 size=N/A time=00:05:31.95 bitrate=N/A speed=17.9x    frame= 8208 fps=430 q=-0.0 size=N/A time=00:05:42.34 bitrate=N/A speed=17.9x    frame= 8446 fps=431 q=-0.0 size=N/A time=00:05:52.26 bitrate=N/A speed=  18x    frame= 8683 fps=432 q=-0.0 size=N/A time=00:06:02.15 bitrate=N/A speed=  18x    frame= 8868 fps=430 q=-0.0 size=N/A time=00:06:09.86 bitrate=N/A speed=17.9x    frame= 9112 fps=431 q=-0.0 size=N/A time=00:06:20.04 bitrate=N/A speed=  18x    frame= 9362 fps=432 q=-0.0 size=N/A time=00:06:30.47 bitrate=N/A speed=  18x    frame= 9627 fps=434 q=-0.0 size=N/A time=00:06:41.52 bitrate=N/A speed=18.1x    frame= 9864 fps=435 q=-0.0 size=N/A time=00:06:51.41 bitrate=N/A speed=18.1x    frame=10140 fps=437 q=-0.0 size=N/A time=00:07:02.92 bitrate=N/A speed=18.2x    frame=10388 fps=438 q=-0.0 size=N/A time=00:07:13.26 bitrate=N/A speed=18.3x    frame=10642 fps=439 q=-0.0 size=N/A time=00:07:23.86 bitrate=N/A speed=18.3x    frame=10910 fps=441 q=-0.0 size=N/A time=00:07:35.03 bitrate=N/A speed=18.4x    frame=11165 fps=442 q=-0.0 size=N/A time=00:07:45.71 bitrate=N/A speed=18.4x    frame=11436 fps=444 q=-0.0 size=N/A time=00:07:56.97 bitrate=N/A speed=18.5x    frame=11694 fps=445 q=-0.0 size=N/A time=00:08:07.73 bitrate=N/A speed=18.6x    frame=11972 fps=447 q=-0.0 size=N/A time=00:08:19.33 bitrate=N/A speed=18.6x    frame=12247 fps=448 q=-0.0 size=N/A time=00:08:30.80 bitrate=N/A speed=18.7x    frame=12520 fps=450 q=-0.0 size=N/A time=00:08:42.18 bitrate=N/A speed=18.8x    frame=12773 fps=451 q=-0.0 size=N/A time=00:08:52.74 bitrate=N/A speed=18.8x    frame=13048 fps=452 q=-0.0 size=N/A time=00:09:04.21 bitrate=N/A speed=18.8x    frame=13315 fps=453 q=-0.0 size=N/A time=00:09:15.34 bitrate=N/A speed=18.9x    frame=13566 fps=454 q=-0.0 size=N/A time=00:09:25.81 bitrate=N/A speed=18.9x    frame=13826 fps=455 q=-0.0 size=N/A time=00:09:36.65 bitrate=N/A speed=  19x    frame=14088 fps=455 q=-0.0 size=N/A time=00:09:47.58 bitrate=N/A speed=  19x    frame=14355 fps=456 q=-0.0 size=N/A time=00:09:58.72 bitrate=N/A speed=  19x    frame=14610 fps=457 q=-0.0 size=N/A time=00:10:09.35 bitrate=N/A speed=19.1x    frame=14820 fps=456 q=-0.0 size=N/A time=00:10:18.11 bitrate=N/A speed=  19x    frame=15055 fps=456 q=-0.0 size=N/A time=00:10:27.91 bitrate=N/A speed=  19x    frame=15298 fps=457 q=-0.0 size=N/A time=00:10:38.05 bitrate=N/A speed=  19x    frame=15527 fps=456 q=-0.0 size=N/A time=00:10:47.60 bitrate=N/A speed=  19x    frame=15801 fps=457 q=-0.0 size=N/A time=00:10:59.03 bitrate=N/A speed=19.1x    frame=16057 fps=458 q=-0.0 size=N/A time=00:11:09.71 bitrate=N/A speed=19.1x    frame=16340 fps=459 q=-0.0 size=N/A time=00:11:21.51 bitrate=N/A speed=19.2x    frame=16580 fps=459 q=-0.0 size=N/A time=00:11:31.52 bitrate=N/A speed=19.2x    frame=16836 fps=460 q=-0.0 size=N/A time=00:11:42.20 bitrate=N/A speed=19.2x    frame=17058 fps=460 q=-0.0 size=N/A time=00:11:51.46 bitrate=N/A speed=19.2x    frame=17287 fps=459 q=-0.0 size=N/A time=00:12:01.01 bitrate=N/A speed=19.2x    frame=17524 fps=459 q=-0.0 size=N/A time=00:12:10.89 bitrate=N/A speed=19.2x    frame=17751 fps=459 q=-0.0 size=N/A time=00:12:20.36 bitrate=N/A speed=19.1x    frame=18004 fps=459 q=-0.0 size=N/A time=00:12:30.91 bitrate=N/A speed=19.2x    frame=18270 fps=460 q=-0.0 size=N/A time=00:12:42.01 bitrate=N/A speed=19.2x    frame=18523 fps=460 q=-0.0 size=N/A time=00:12:52.56 bitrate=N/A speed=19.2x    frame=18780 fps=461 q=-0.0 size=N/A time=00:13:03.28 bitrate=N/A speed=19.2x    frame=19047 fps=462 q=-0.0 size=N/A time=00:13:14.41 bitrate=N/A speed=19.3x    frame=19298 fps=462 q=-0.0 size=N/A time=00:13:24.88 bitrate=N/A speed=19.3x    frame=19527 fps=462 q=-0.0 size=N/A time=00:13:34.43 bitrate=N/A speed=19.3x    frame=19787 fps=462 q=-0.0 size=N/A time=00:13:45.28 bitrate=N/A speed=19.3x    frame=20048 fps=463 q=-0.0 size=N/A time=00:13:56.16 bitrate=N/A speed=19.3x    frame=20302 fps=463 q=-0.0 size=N/A time=00:14:06.76 bitrate=N/A speed=19.3x    frame=20507 fps=462 q=-0.0 size=N/A time=00:14:15.31 bitrate=N/A speed=19.3x    frame=20764 fps=463 q=-0.0 size=N/A time=00:14:26.03 bitrate=N/A speed=19.3x    frame=20999 fps=463 q=-0.0 size=N/A time=00:14:35.83 bitrate=N/A speed=19.3x    frame=21219 fps=462 q=-0.0 size=N/A time=00:14:45.00 bitrate=N/A speed=19.3x    frame=21457 fps=462 q=-0.0 size=N/A time=00:14:54.93 bitrate=N/A speed=19.3x    frame=21675 fps=462 q=-0.0 size=N/A time=00:15:04.02 bitrate=N/A speed=19.3x    frame=21882 fps=461 q=-0.0 size=N/A time=00:15:12.66 bitrate=N/A speed=19.2x    frame=22124 fps=461 q=-0.0 size=N/A time=00:15:22.75 bitrate=N/A speed=19.2x    frame=22347 fps=461 q=-0.0 size=N/A time=00:15:32.05 bitrate=N/A speed=19.2x    frame=22568 fps=461 q=-0.0 size=N/A time=00:15:41.27 bitrate=N/A speed=19.2x    frame=22810 fps=461 q=-0.0 size=N/A time=00:15:51.36 bitrate=N/A speed=19.2x    frame=23064 fps=461 q=-0.0 size=N/A time=00:16:01.96 bitrate=N/A speed=19.2x    frame=23324 fps=461 q=-0.0 size=N/A time=00:16:12.80 bitrate=N/A speed=19.2x    frame=23600 fps=462 q=-0.0 size=N/A time=00:16:24.31 bitrate=N/A speed=19.3x    frame=23789 fps=461 q=-0.0 size=N/A time=00:16:32.19 bitrate=N/A speed=19.2x    frame=24046 fps=462 q=-0.0 size=N/A time=00:16:42.91 bitrate=N/A speed=19.3x    frame=24298 fps=462 q=-0.0 size=N/A time=00:16:53.42 bitrate=N/A speed=19.3x    frame=24543 fps=462 q=-0.0 size=N/A time=00:17:03.64 bitrate=N/A speed=19.3x    frame=24773 fps=462 q=-0.0 size=N/A time=00:17:13.24 bitrate=N/A speed=19.3x    frame=25031 fps=462 q=-0.0 size=N/A time=00:17:24.00 bitrate=N/A speed=19.3x    frame=25234 fps=462 q=-0.0 size=N/A time=00:17:32.46 bitrate=N/A speed=19.3x    frame=25410 fps=460 q=-0.0 size=N/A time=00:17:39.80 bitrate=N/A speed=19.2x    frame=25676 fps=461 q=-0.0 size=N/A time=00:17:50.90 bitrate=N/A speed=19.2x    frame=25915 fps=461 q=-0.0 size=N/A time=00:18:00.87 bitrate=N/A speed=19.2x    frame=26136 fps=461 q=-0.0 size=N/A time=00:18:10.08 bitrate=N/A speed=19.2x    frame=26376 fps=461 q=-0.0 size=N/A time=00:18:20.09 bitrate=N/A speed=19.2x    frame=26620 fps=461 q=-0.0 size=N/A time=00:18:30.27 bitrate=N/A speed=19.2x    frame=26844 fps=461 q=-0.0 size=N/A time=00:18:39.61 bitrate=N/A speed=19.2x    frame=27067 fps=460 q=-0.0 size=N/A time=00:18:48.91 bitrate=N/A speed=19.2x    frame=27292 fps=460 q=-0.0 size=N/A time=00:18:58.30 bitrate=N/A speed=19.2x    frame=27537 fps=460 q=-0.0 size=N/A time=00:19:08.52 bitrate=N/A speed=19.2x    frame=27782 fps=460 q=-0.0 size=N/A time=00:19:18.74 bitrate=N/A speed=19.2x    frame=28013 fps=460 q=-0.0 size=N/A time=00:19:28.37 bitrate=N/A speed=19.2x    frame=28248 fps=460 q=-0.0 size=N/A time=00:19:38.17 bitrate=N/A speed=19.2x    frame=28526 fps=461 q=-0.0 size=N/A time=00:19:49.77 bitrate=N/A speed=19.2x    frame=28791 fps=461 q=-0.0 size=N/A time=00:20:00.82 bitrate=N/A speed=19.2x    frame=29018 fps=461 q=-0.0 size=N/A time=00:20:10.29 bitrate=N/A speed=19.2x    frame=29290 fps=462 q=-0.0 size=N/A time=00:20:21.63 bitrate=N/A speed=19.3x    frame=29566 fps=462 q=-0.0 size=N/A time=00:20:33.14 bitrate=N/A speed=19.3x    frame=29809 fps=462 q=-0.0 size=N/A time=00:20:43.28 bitrate=N/A speed=19.3x    frame=30045 fps=462 q=-0.0 size=N/A time=00:20:53.12 bitrate=N/A speed=19.3x    frame=30275 fps=462 q=-0.0 size=N/A time=00:21:02.71 bitrate=N/A speed=19.3x    frame=30529 fps=462 q=-0.0 size=N/A time=00:21:13.31 bitrate=N/A speed=19.3x    frame=30732 fps=462 q=-0.0 size=N/A time=00:21:21.78 bitrate=N/A speed=19.3x    frame=30987 fps=462 q=-0.0 size=N/A time=00:21:32.41 bitrate=N/A speed=19.3x    frame=31210 fps=462 q=-0.0 size=N/A time=00:21:41.71 bitrate=N/A speed=19.3x    frame=31452 fps=462 q=-0.0 size=N/A time=00:21:51.81 bitrate=N/A speed=19.3x    frame=31675 fps=462 q=-0.0 size=N/A time=00:22:01.11 bitrate=N/A speed=19.3x    frame=31933 fps=462 q=-0.0 size=N/A time=00:22:11.87 bitrate=N/A speed=19.3x    frame=32170 fps=462 q=-0.0 size=N/A time=00:22:21.75 bitrate=N/A speed=19.3x    frame=32393 fps=462 q=-0.0 size=N/A time=00:22:31.05 bitrate=N/A speed=19.3x    frame=32610 fps=462 q=-0.0 size=N/A time=00:22:40.10 bitrate=N/A speed=19.3x    frame=32802 fps=461 q=-0.0 size=N/A time=00:22:48.11 bitrate=N/A speed=19.2x    frame=32951 fps=460 q=-0.0 size=N/A time=00:22:54.33 bitrate=N/A speed=19.2x    frame=33150 fps=459 q=-0.0 size=N/A time=00:23:02.63 bitrate=N/A speed=19.2x    frame=33325 fps=458 q=-0.0 size=N/A time=00:23:09.93 bitrate=N/A speed=19.1x    frame=33525 fps=458 q=-0.0 size=N/A time=00:23:18.27 bitrate=N/A speed=19.1x    frame=33670 fps=457 q=-0.0 size=N/A time=00:23:24.31 bitrate=N/A speed=  19x    frame=33843 fps=456 q=-0.0 size=N/A time=00:23:31.53 bitrate=N/A speed=  19x    frame=34021 fps=455 q=-0.0 size=N/A time=00:23:38.95 bitrate=N/A speed=  19x    frame=34220 fps=454 q=-0.0 size=N/A time=00:23:47.25 bitrate=N/A speed=  19x    frame=34467 fps=455 q=-0.0 size=N/A time=00:23:57.56 bitrate=N/A speed=  19x    [Parsed_psnr_10 @ 000002a410650680] PSNR y:47.772064 u:49.910823 v:49.479051 average:48.322212 min:38.505358 max:inf
[out#0/null @ 000002a408ae4e80] video:14851KiB audio:270324KiB subtitle:0KiB other streams:0KiB global headers:0KiB muxing overhead: unknown
frame=34562 fps=454 q=-0.0 Lsize=N/A time=00:24:01.52 bitrate=N/A speed=  19x    
